# xmcd CD database file
#
# Track frame offsets:
#	150
#	20375
#	46710
#
# Disc length: 890 seconds
#
# Revision: 3
# Processed by: cddbd v1.5.2PL0 Copyright (c) Steve Scherf et al.
# Submitted via: CDex 1.70beta3
#
DISCID=16037803
DTITLE=中島美嘉 - 一番綺麗な私を
DYEAR=2010
DGENRE=JPop
TTITLE0=一番綺麗な私を
TTITLE1=一万綺麗な私を(Raggae Disco Rockers Remix)
TTITLE2=一番綺麗な私を(instrumental)
EXTD=YEAR: 2010
EXTT0=
EXTT1=
EXTT2=
PLAYORDER=
